G75*
%MOIN*%
%OFA0B0*%
%FSLAX24Y24*%
%IPPOS*%
%LPD*%
%AMOC8*
5,1,8,0,0,1.08239X$1,22.5*
%
%ADD10C,0.0000*%
%ADD11C,0.0050*%
%ADD12R,0.0700X0.0700*%
%ADD13C,0.0700*%
%ADD14C,0.0040*%
%ADD15R,0.0906X0.1693*%
%ADD16R,0.0906X0.1441*%
%ADD17R,0.0591X0.0984*%
%ADD18R,0.0591X0.0738*%
%ADD19C,0.0100*%
%ADD20C,0.0400*%
D10*
X000100Y001400D02*
X000100Y019896D01*
X009470Y019896D01*
X009470Y001400D01*
X000100Y001400D01*
X000750Y001900D02*
X000752Y001937D01*
X000758Y001974D01*
X000768Y002010D01*
X000781Y002045D01*
X000798Y002078D01*
X000819Y002109D01*
X000843Y002137D01*
X000870Y002163D01*
X000899Y002186D01*
X000930Y002206D01*
X000964Y002222D01*
X000999Y002235D01*
X001035Y002244D01*
X001072Y002249D01*
X001109Y002250D01*
X001146Y002247D01*
X001183Y002240D01*
X001219Y002229D01*
X001253Y002215D01*
X001286Y002197D01*
X001316Y002175D01*
X001344Y002151D01*
X001369Y002123D01*
X001392Y002093D01*
X001411Y002061D01*
X001426Y002027D01*
X001438Y001992D01*
X001446Y001956D01*
X001450Y001919D01*
X001450Y001881D01*
X001446Y001844D01*
X001438Y001808D01*
X001426Y001773D01*
X001411Y001739D01*
X001392Y001707D01*
X001369Y001677D01*
X001344Y001649D01*
X001316Y001625D01*
X001286Y001603D01*
X001253Y001585D01*
X001219Y001571D01*
X001183Y001560D01*
X001146Y001553D01*
X001109Y001550D01*
X001072Y001551D01*
X001035Y001556D01*
X000999Y001565D01*
X000964Y001578D01*
X000930Y001594D01*
X000899Y001614D01*
X000870Y001637D01*
X000843Y001663D01*
X000819Y001691D01*
X000798Y001722D01*
X000781Y001755D01*
X000768Y001790D01*
X000758Y001826D01*
X000752Y001863D01*
X000750Y001900D01*
X003700Y005400D02*
X004500Y005400D01*
X004100Y005000D02*
X004100Y005800D01*
X003903Y006876D02*
X003905Y006903D01*
X003911Y006930D01*
X003920Y006956D01*
X003933Y006980D01*
X003949Y007003D01*
X003968Y007022D01*
X003990Y007039D01*
X004014Y007053D01*
X004039Y007063D01*
X004066Y007070D01*
X004093Y007073D01*
X004121Y007072D01*
X004148Y007067D01*
X004174Y007059D01*
X004198Y007047D01*
X004221Y007031D01*
X004242Y007013D01*
X004259Y006992D01*
X004274Y006968D01*
X004285Y006943D01*
X004293Y006917D01*
X004297Y006890D01*
X004297Y006862D01*
X004293Y006835D01*
X004285Y006809D01*
X004274Y006784D01*
X004259Y006760D01*
X004242Y006739D01*
X004221Y006721D01*
X004199Y006705D01*
X004174Y006693D01*
X004148Y006685D01*
X004121Y006680D01*
X004093Y006679D01*
X004066Y006682D01*
X004039Y006689D01*
X004014Y006699D01*
X003990Y006713D01*
X003968Y006730D01*
X003949Y006749D01*
X003933Y006772D01*
X003920Y006796D01*
X003911Y006822D01*
X003905Y006849D01*
X003903Y006876D01*
X003854Y003924D02*
X003856Y003955D01*
X003862Y003985D01*
X003871Y004015D01*
X003884Y004043D01*
X003901Y004069D01*
X003921Y004092D01*
X003943Y004114D01*
X003968Y004132D01*
X003995Y004147D01*
X004024Y004158D01*
X004054Y004166D01*
X004085Y004170D01*
X004115Y004170D01*
X004146Y004166D01*
X004176Y004158D01*
X004205Y004147D01*
X004232Y004132D01*
X004257Y004114D01*
X004279Y004092D01*
X004299Y004069D01*
X004316Y004043D01*
X004329Y004015D01*
X004338Y003985D01*
X004344Y003955D01*
X004346Y003924D01*
X004344Y003893D01*
X004338Y003863D01*
X004329Y003833D01*
X004316Y003805D01*
X004299Y003779D01*
X004279Y003756D01*
X004257Y003734D01*
X004232Y003716D01*
X004205Y003701D01*
X004176Y003690D01*
X004146Y003682D01*
X004115Y003678D01*
X004085Y003678D01*
X004054Y003682D01*
X004024Y003690D01*
X003995Y003701D01*
X003968Y003716D01*
X003943Y003734D01*
X003921Y003756D01*
X003901Y003779D01*
X003884Y003805D01*
X003871Y003833D01*
X003862Y003863D01*
X003856Y003893D01*
X003854Y003924D01*
X006750Y001900D02*
X006752Y001937D01*
X006758Y001974D01*
X006768Y002010D01*
X006781Y002045D01*
X006798Y002078D01*
X006819Y002109D01*
X006843Y002137D01*
X006870Y002163D01*
X006899Y002186D01*
X006930Y002206D01*
X006964Y002222D01*
X006999Y002235D01*
X007035Y002244D01*
X007072Y002249D01*
X007109Y002250D01*
X007146Y002247D01*
X007183Y002240D01*
X007219Y002229D01*
X007253Y002215D01*
X007286Y002197D01*
X007316Y002175D01*
X007344Y002151D01*
X007369Y002123D01*
X007392Y002093D01*
X007411Y002061D01*
X007426Y002027D01*
X007438Y001992D01*
X007446Y001956D01*
X007450Y001919D01*
X007450Y001881D01*
X007446Y001844D01*
X007438Y001808D01*
X007426Y001773D01*
X007411Y001739D01*
X007392Y001707D01*
X007369Y001677D01*
X007344Y001649D01*
X007316Y001625D01*
X007286Y001603D01*
X007253Y001585D01*
X007219Y001571D01*
X007183Y001560D01*
X007146Y001553D01*
X007109Y001550D01*
X007072Y001551D01*
X007035Y001556D01*
X006999Y001565D01*
X006964Y001578D01*
X006930Y001594D01*
X006899Y001614D01*
X006870Y001637D01*
X006843Y001663D01*
X006819Y001691D01*
X006798Y001722D01*
X006781Y001755D01*
X006768Y001790D01*
X006758Y001826D01*
X006752Y001863D01*
X006750Y001900D01*
X008600Y007000D02*
X008600Y007800D01*
X008200Y007400D02*
X009000Y007400D01*
X008600Y015000D02*
X008600Y015800D01*
X008200Y015400D02*
X009000Y015400D01*
X007500Y017900D02*
X006700Y017900D01*
X006750Y017900D02*
X006752Y017937D01*
X006758Y017974D01*
X006768Y018010D01*
X006781Y018045D01*
X006798Y018078D01*
X006819Y018109D01*
X006843Y018137D01*
X006870Y018163D01*
X006899Y018186D01*
X006930Y018206D01*
X006964Y018222D01*
X006999Y018235D01*
X007035Y018244D01*
X007072Y018249D01*
X007109Y018250D01*
X007146Y018247D01*
X007183Y018240D01*
X007219Y018229D01*
X007253Y018215D01*
X007286Y018197D01*
X007316Y018175D01*
X007344Y018151D01*
X007369Y018123D01*
X007392Y018093D01*
X007411Y018061D01*
X007426Y018027D01*
X007438Y017992D01*
X007446Y017956D01*
X007450Y017919D01*
X007450Y017881D01*
X007446Y017844D01*
X007438Y017808D01*
X007426Y017773D01*
X007411Y017739D01*
X007392Y017707D01*
X007369Y017677D01*
X007344Y017649D01*
X007316Y017625D01*
X007286Y017603D01*
X007253Y017585D01*
X007219Y017571D01*
X007183Y017560D01*
X007146Y017553D01*
X007109Y017550D01*
X007072Y017551D01*
X007035Y017556D01*
X006999Y017565D01*
X006964Y017578D01*
X006930Y017594D01*
X006899Y017614D01*
X006870Y017637D01*
X006843Y017663D01*
X006819Y017691D01*
X006798Y017722D01*
X006781Y017755D01*
X006768Y017790D01*
X006758Y017826D01*
X006752Y017863D01*
X006750Y017900D01*
X007100Y017500D02*
X007100Y018300D01*
X004500Y013400D02*
X003700Y013400D01*
X004100Y013000D02*
X004100Y013800D01*
X003903Y014876D02*
X003905Y014903D01*
X003911Y014930D01*
X003920Y014956D01*
X003933Y014980D01*
X003949Y015003D01*
X003968Y015022D01*
X003990Y015039D01*
X004014Y015053D01*
X004039Y015063D01*
X004066Y015070D01*
X004093Y015073D01*
X004121Y015072D01*
X004148Y015067D01*
X004174Y015059D01*
X004198Y015047D01*
X004221Y015031D01*
X004242Y015013D01*
X004259Y014992D01*
X004274Y014968D01*
X004285Y014943D01*
X004293Y014917D01*
X004297Y014890D01*
X004297Y014862D01*
X004293Y014835D01*
X004285Y014809D01*
X004274Y014784D01*
X004259Y014760D01*
X004242Y014739D01*
X004221Y014721D01*
X004199Y014705D01*
X004174Y014693D01*
X004148Y014685D01*
X004121Y014680D01*
X004093Y014679D01*
X004066Y014682D01*
X004039Y014689D01*
X004014Y014699D01*
X003990Y014713D01*
X003968Y014730D01*
X003949Y014749D01*
X003933Y014772D01*
X003920Y014796D01*
X003911Y014822D01*
X003905Y014849D01*
X003903Y014876D01*
X003854Y011924D02*
X003856Y011955D01*
X003862Y011985D01*
X003871Y012015D01*
X003884Y012043D01*
X003901Y012069D01*
X003921Y012092D01*
X003943Y012114D01*
X003968Y012132D01*
X003995Y012147D01*
X004024Y012158D01*
X004054Y012166D01*
X004085Y012170D01*
X004115Y012170D01*
X004146Y012166D01*
X004176Y012158D01*
X004205Y012147D01*
X004232Y012132D01*
X004257Y012114D01*
X004279Y012092D01*
X004299Y012069D01*
X004316Y012043D01*
X004329Y012015D01*
X004338Y011985D01*
X004344Y011955D01*
X004346Y011924D01*
X004344Y011893D01*
X004338Y011863D01*
X004329Y011833D01*
X004316Y011805D01*
X004299Y011779D01*
X004279Y011756D01*
X004257Y011734D01*
X004232Y011716D01*
X004205Y011701D01*
X004176Y011690D01*
X004146Y011682D01*
X004115Y011678D01*
X004085Y011678D01*
X004054Y011682D01*
X004024Y011690D01*
X003995Y011701D01*
X003968Y011716D01*
X003943Y011734D01*
X003921Y011756D01*
X003901Y011779D01*
X003884Y011805D01*
X003871Y011833D01*
X003862Y011863D01*
X003856Y011893D01*
X003854Y011924D01*
X000750Y017900D02*
X000752Y017937D01*
X000758Y017974D01*
X000768Y018010D01*
X000781Y018045D01*
X000798Y018078D01*
X000819Y018109D01*
X000843Y018137D01*
X000870Y018163D01*
X000899Y018186D01*
X000930Y018206D01*
X000964Y018222D01*
X000999Y018235D01*
X001035Y018244D01*
X001072Y018249D01*
X001109Y018250D01*
X001146Y018247D01*
X001183Y018240D01*
X001219Y018229D01*
X001253Y018215D01*
X001286Y018197D01*
X001316Y018175D01*
X001344Y018151D01*
X001369Y018123D01*
X001392Y018093D01*
X001411Y018061D01*
X001426Y018027D01*
X001438Y017992D01*
X001446Y017956D01*
X001450Y017919D01*
X001450Y017881D01*
X001446Y017844D01*
X001438Y017808D01*
X001426Y017773D01*
X001411Y017739D01*
X001392Y017707D01*
X001369Y017677D01*
X001344Y017649D01*
X001316Y017625D01*
X001286Y017603D01*
X001253Y017585D01*
X001219Y017571D01*
X001183Y017560D01*
X001146Y017553D01*
X001109Y017550D01*
X001072Y017551D01*
X001035Y017556D01*
X000999Y017565D01*
X000964Y017578D01*
X000930Y017594D01*
X000899Y017614D01*
X000870Y017637D01*
X000843Y017663D01*
X000819Y017691D01*
X000798Y017722D01*
X000781Y017755D01*
X000768Y017790D01*
X000758Y017826D01*
X000752Y017863D01*
X000750Y017900D01*
X003200Y018900D02*
X004000Y018900D01*
X003600Y018500D02*
X003600Y019300D01*
D11*
X000500Y001300D02*
X007700Y001300D01*
X007700Y018500D01*
X000500Y018500D01*
X000500Y001300D01*
X001344Y002743D02*
X001344Y002939D01*
X001541Y002939D02*
X001541Y002743D01*
X001344Y002743D02*
X001346Y002717D01*
X001351Y002692D01*
X001359Y002668D01*
X001370Y002645D01*
X001385Y002623D01*
X001402Y002604D01*
X001421Y002587D01*
X001442Y002572D01*
X001466Y002561D01*
X001490Y002553D01*
X001515Y002548D01*
X001541Y002546D01*
X002328Y002546D01*
X003116Y002349D01*
X003313Y002349D01*
X003340Y002351D01*
X003366Y002356D01*
X003391Y002365D01*
X003415Y002378D01*
X003437Y002393D01*
X003457Y002412D01*
X003474Y002432D01*
X003488Y002455D01*
X003499Y002480D01*
X003506Y002506D01*
X003510Y002533D01*
X003510Y002559D01*
X003506Y002586D01*
X003499Y002612D01*
X003488Y002637D01*
X003474Y002660D01*
X003457Y002680D01*
X003437Y002699D01*
X003415Y002714D01*
X003391Y002727D01*
X003366Y002736D01*
X003340Y002741D01*
X003313Y002743D01*
X001541Y002743D01*
X001639Y002841D02*
X003411Y002841D01*
X003411Y003038D01*
X004789Y003038D01*
X004789Y002841D01*
X006561Y002841D01*
X006659Y002939D02*
X006659Y002743D01*
X006659Y002546D02*
X006685Y002548D01*
X006710Y002553D01*
X006734Y002561D01*
X006758Y002572D01*
X006779Y002587D01*
X006798Y002604D01*
X006815Y002623D01*
X006830Y002644D01*
X006841Y002668D01*
X006849Y002692D01*
X006854Y002717D01*
X006856Y002743D01*
X006856Y002939D01*
X006854Y002965D01*
X006849Y002990D01*
X006841Y003014D01*
X006830Y003038D01*
X006815Y003059D01*
X006798Y003078D01*
X006779Y003095D01*
X006758Y003110D01*
X006734Y003121D01*
X006710Y003129D01*
X006685Y003134D01*
X006659Y003136D01*
X006069Y003136D01*
X006068Y003136D02*
X006046Y003139D01*
X006025Y003146D01*
X006006Y003157D01*
X005989Y003171D01*
X005974Y003187D01*
X005962Y003206D01*
X005954Y003227D01*
X005950Y003248D01*
X005949Y003271D01*
X005952Y003293D01*
X005959Y003314D01*
X005970Y003333D01*
X005380Y003431D02*
X005358Y003407D01*
X005339Y003382D01*
X005322Y003355D01*
X005308Y003326D01*
X005296Y003296D01*
X005287Y003266D01*
X005281Y003234D01*
X005281Y003235D02*
X005281Y003136D01*
X005283Y003110D01*
X005288Y003085D01*
X005296Y003061D01*
X005307Y003038D01*
X005322Y003016D01*
X005339Y002997D01*
X005358Y002980D01*
X005380Y002965D01*
X005403Y002954D01*
X005427Y002946D01*
X005452Y002941D01*
X005478Y002939D01*
X006659Y002939D01*
X006659Y002743D02*
X004887Y002743D01*
X004789Y002841D02*
X003411Y002841D01*
X003411Y003038D02*
X003214Y003235D01*
X004986Y003235D01*
X004789Y003038D01*
X004887Y002743D02*
X004860Y002741D01*
X004834Y002736D01*
X004809Y002727D01*
X004785Y002714D01*
X004763Y002699D01*
X004743Y002680D01*
X004726Y002660D01*
X004712Y002637D01*
X004701Y002612D01*
X004694Y002586D01*
X004690Y002559D01*
X004690Y002533D01*
X004694Y002506D01*
X004701Y002480D01*
X004712Y002455D01*
X004726Y002432D01*
X004743Y002412D01*
X004763Y002393D01*
X004785Y002378D01*
X004809Y002365D01*
X004834Y002356D01*
X004860Y002351D01*
X004887Y002349D01*
X005084Y002349D01*
X005872Y002546D01*
X006659Y002546D01*
X007600Y002900D02*
X009600Y002900D01*
X009600Y011900D01*
X007600Y011900D01*
X007600Y002900D01*
X005970Y003333D02*
X006053Y003403D01*
X006133Y003476D01*
X006211Y003551D01*
X006286Y003630D01*
X006358Y003711D01*
X006427Y003794D01*
X006493Y003880D01*
X006556Y003969D01*
X006616Y004060D01*
X006672Y004152D01*
X006724Y004247D01*
X006774Y004344D01*
X006819Y004442D01*
X006861Y004542D01*
X006900Y004643D01*
X006935Y004746D01*
X006966Y004850D01*
X006993Y004955D01*
X007016Y005061D01*
X007035Y005168D01*
X007051Y005275D01*
X007062Y005383D01*
X007070Y005491D01*
X007074Y005600D01*
X007073Y005708D01*
X007069Y005816D01*
X007061Y005925D01*
X007049Y006032D01*
X007033Y006140D01*
X007013Y006246D01*
X006989Y006352D01*
X006961Y006457D01*
X006930Y006561D01*
X006895Y006663D01*
X006856Y006764D01*
X006813Y006864D01*
X006767Y006962D01*
X006717Y007059D01*
X006664Y007153D01*
X006607Y007246D01*
X006547Y007336D01*
X006484Y007424D01*
X006418Y007510D01*
X006348Y007593D01*
X006276Y007674D01*
X006200Y007752D01*
X006122Y007827D01*
X006041Y007899D01*
X005958Y007968D01*
X005872Y008035D01*
X005784Y008098D01*
X005693Y008157D01*
X005600Y008214D01*
X005506Y008267D01*
X005409Y008316D01*
X005311Y008362D01*
X005211Y008405D01*
X005110Y008443D01*
X005007Y008478D01*
X004903Y008509D01*
X004798Y008537D01*
X004693Y008560D01*
X004586Y008580D01*
X004479Y008596D01*
X004371Y008608D01*
X004263Y008616D01*
X004154Y008620D01*
X004046Y008620D01*
X003937Y008616D01*
X003829Y008608D01*
X003721Y008596D01*
X003614Y008580D01*
X003507Y008560D01*
X003402Y008537D01*
X003297Y008509D01*
X003193Y008478D01*
X003090Y008443D01*
X002989Y008405D01*
X002889Y008362D01*
X002791Y008316D01*
X002694Y008267D01*
X002600Y008214D01*
X002507Y008157D01*
X002416Y008098D01*
X002328Y008035D01*
X002242Y007968D01*
X002159Y007899D01*
X002078Y007827D01*
X002000Y007752D01*
X001924Y007674D01*
X001852Y007593D01*
X001782Y007510D01*
X001716Y007424D01*
X001653Y007336D01*
X001593Y007246D01*
X001536Y007153D01*
X001483Y007059D01*
X001433Y006962D01*
X001387Y006864D01*
X001344Y006764D01*
X001305Y006663D01*
X001270Y006561D01*
X001239Y006457D01*
X001211Y006352D01*
X001187Y006246D01*
X001167Y006140D01*
X001151Y006032D01*
X001139Y005925D01*
X001131Y005816D01*
X001127Y005708D01*
X001126Y005600D01*
X001130Y005491D01*
X001138Y005383D01*
X001149Y005275D01*
X001165Y005168D01*
X001184Y005061D01*
X001207Y004955D01*
X001234Y004850D01*
X001265Y004746D01*
X001300Y004643D01*
X001339Y004542D01*
X001381Y004442D01*
X001426Y004344D01*
X001476Y004247D01*
X001528Y004152D01*
X001584Y004060D01*
X001644Y003969D01*
X001707Y003880D01*
X001773Y003794D01*
X001842Y003711D01*
X001914Y003630D01*
X001989Y003551D01*
X002067Y003476D01*
X002147Y003403D01*
X002230Y003333D01*
X002240Y003315D01*
X002247Y003296D01*
X002250Y003276D01*
X002251Y003255D01*
X002248Y003235D01*
X002242Y003216D01*
X002233Y003197D01*
X002221Y003181D01*
X002206Y003166D01*
X002190Y003154D01*
X002171Y003145D01*
X002152Y003139D01*
X002132Y003136D01*
X002131Y003136D02*
X001541Y003136D01*
X001515Y003134D01*
X001490Y003129D01*
X001466Y003121D01*
X001443Y003110D01*
X001421Y003095D01*
X001402Y003078D01*
X001385Y003059D01*
X001370Y003038D01*
X001359Y003014D01*
X001351Y002990D01*
X001346Y002965D01*
X001344Y002939D01*
X001541Y002939D02*
X002722Y002939D01*
X002748Y002941D01*
X002773Y002946D01*
X002797Y002954D01*
X002821Y002965D01*
X002842Y002980D01*
X002861Y002997D01*
X002878Y003016D01*
X002893Y003037D01*
X002904Y003061D01*
X002912Y003085D01*
X002917Y003110D01*
X002919Y003136D01*
X002919Y003235D01*
X002917Y003263D01*
X002912Y003292D01*
X002904Y003319D01*
X002893Y003345D01*
X002879Y003370D01*
X002862Y003393D01*
X002842Y003413D01*
X002821Y003432D01*
X002820Y003431D02*
X002734Y003483D01*
X002650Y003539D01*
X002568Y003597D01*
X002489Y003659D01*
X002412Y003724D01*
X002338Y003792D01*
X002266Y003863D01*
X002197Y003936D01*
X002131Y004013D01*
X002069Y004091D01*
X002009Y004172D01*
X001953Y004256D01*
X001900Y004341D01*
X001850Y004429D01*
X001804Y004519D01*
X001761Y004610D01*
X001722Y004703D01*
X001687Y004797D01*
X001655Y004893D01*
X001628Y004989D01*
X001604Y005087D01*
X001584Y005186D01*
X001568Y005285D01*
X001555Y005385D01*
X001547Y005485D01*
X001543Y005586D01*
X001542Y005687D01*
X001546Y005787D01*
X001553Y005888D01*
X001565Y005988D01*
X001580Y006087D01*
X001600Y006186D01*
X001623Y006284D01*
X001650Y006381D01*
X001681Y006477D01*
X001715Y006572D01*
X001754Y006665D01*
X001795Y006756D01*
X001841Y006846D01*
X001890Y006934D01*
X001942Y007020D01*
X001998Y007104D01*
X002057Y007185D01*
X002119Y007265D01*
X002184Y007341D01*
X002253Y007415D01*
X002324Y007487D01*
X002398Y007555D01*
X002474Y007621D01*
X002553Y007683D01*
X002634Y007742D01*
X002718Y007799D01*
X002804Y007851D01*
X002892Y007901D01*
X002981Y007946D01*
X003073Y007989D01*
X003166Y008027D01*
X003260Y008062D01*
X003356Y008093D01*
X003453Y008121D01*
X003551Y008144D01*
X003649Y008164D01*
X003749Y008180D01*
X003849Y008192D01*
X003949Y008200D01*
X004050Y008204D01*
X004150Y008204D01*
X004251Y008200D01*
X004351Y008192D01*
X004451Y008180D01*
X004551Y008164D01*
X004649Y008144D01*
X004747Y008121D01*
X004844Y008093D01*
X004940Y008062D01*
X005034Y008027D01*
X005127Y007989D01*
X005219Y007946D01*
X005308Y007901D01*
X005396Y007851D01*
X005482Y007799D01*
X005566Y007742D01*
X005647Y007683D01*
X005726Y007621D01*
X005802Y007555D01*
X005876Y007487D01*
X005947Y007415D01*
X006016Y007341D01*
X006081Y007265D01*
X006143Y007185D01*
X006202Y007104D01*
X006258Y007020D01*
X006310Y006934D01*
X006359Y006846D01*
X006405Y006756D01*
X006446Y006665D01*
X006485Y006572D01*
X006519Y006477D01*
X006550Y006381D01*
X006577Y006284D01*
X006600Y006186D01*
X006620Y006087D01*
X006635Y005988D01*
X006647Y005888D01*
X006654Y005787D01*
X006658Y005687D01*
X006657Y005586D01*
X006653Y005485D01*
X006645Y005385D01*
X006632Y005285D01*
X006616Y005186D01*
X006596Y005087D01*
X006572Y004989D01*
X006545Y004893D01*
X006513Y004797D01*
X006478Y004703D01*
X006439Y004610D01*
X006396Y004519D01*
X006350Y004429D01*
X006300Y004341D01*
X006247Y004256D01*
X006191Y004172D01*
X006131Y004091D01*
X006069Y004013D01*
X006003Y003936D01*
X005934Y003863D01*
X005862Y003792D01*
X005788Y003724D01*
X005711Y003659D01*
X005632Y003597D01*
X005550Y003539D01*
X005466Y003483D01*
X005380Y003431D01*
X005084Y010349D02*
X004887Y010349D01*
X004860Y010351D01*
X004834Y010356D01*
X004809Y010365D01*
X004785Y010378D01*
X004763Y010393D01*
X004743Y010412D01*
X004726Y010432D01*
X004712Y010455D01*
X004701Y010480D01*
X004694Y010506D01*
X004690Y010533D01*
X004690Y010559D01*
X004694Y010586D01*
X004701Y010612D01*
X004712Y010637D01*
X004726Y010660D01*
X004743Y010680D01*
X004763Y010699D01*
X004785Y010714D01*
X004809Y010727D01*
X004834Y010736D01*
X004860Y010741D01*
X004887Y010743D01*
X006659Y010743D01*
X006659Y010546D02*
X006685Y010548D01*
X006710Y010553D01*
X006734Y010561D01*
X006758Y010572D01*
X006779Y010587D01*
X006798Y010604D01*
X006815Y010623D01*
X006830Y010645D01*
X006841Y010668D01*
X006849Y010692D01*
X006854Y010717D01*
X006856Y010743D01*
X006856Y010939D01*
X006659Y010939D02*
X006659Y010743D01*
X006561Y010841D02*
X004789Y010841D01*
X004789Y011038D01*
X003411Y011038D01*
X003214Y011235D01*
X004986Y011235D01*
X004789Y011038D01*
X004789Y010841D02*
X003411Y010841D01*
X003411Y011038D01*
X003411Y010841D02*
X001639Y010841D01*
X001541Y010743D02*
X001541Y010939D01*
X001541Y011136D02*
X001515Y011134D01*
X001490Y011129D01*
X001466Y011121D01*
X001443Y011110D01*
X001421Y011095D01*
X001402Y011078D01*
X001385Y011059D01*
X001370Y011038D01*
X001359Y011014D01*
X001351Y010990D01*
X001346Y010965D01*
X001344Y010939D01*
X001344Y010743D01*
X001346Y010717D01*
X001351Y010692D01*
X001359Y010668D01*
X001370Y010645D01*
X001385Y010623D01*
X001402Y010604D01*
X001421Y010587D01*
X001442Y010572D01*
X001466Y010561D01*
X001490Y010553D01*
X001515Y010548D01*
X001541Y010546D01*
X002328Y010546D01*
X003116Y010349D01*
X003313Y010349D01*
X003340Y010351D01*
X003366Y010356D01*
X003391Y010365D01*
X003415Y010378D01*
X003437Y010393D01*
X003457Y010412D01*
X003474Y010432D01*
X003488Y010455D01*
X003499Y010480D01*
X003506Y010506D01*
X003510Y010533D01*
X003510Y010559D01*
X003506Y010586D01*
X003499Y010612D01*
X003488Y010637D01*
X003474Y010660D01*
X003457Y010680D01*
X003437Y010699D01*
X003415Y010714D01*
X003391Y010727D01*
X003366Y010736D01*
X003340Y010741D01*
X003313Y010743D01*
X001541Y010743D01*
X001541Y010939D02*
X002722Y010939D01*
X002748Y010941D01*
X002773Y010946D01*
X002797Y010954D01*
X002821Y010965D01*
X002842Y010980D01*
X002861Y010997D01*
X002878Y011016D01*
X002893Y011038D01*
X002904Y011061D01*
X002912Y011085D01*
X002917Y011110D01*
X002919Y011136D01*
X002919Y011235D01*
X002917Y011263D01*
X002912Y011292D01*
X002904Y011319D01*
X002893Y011345D01*
X002879Y011370D01*
X002862Y011393D01*
X002842Y011413D01*
X002821Y011432D01*
X002230Y011333D02*
X002240Y011315D01*
X002247Y011296D01*
X002250Y011276D01*
X002251Y011255D01*
X002248Y011235D01*
X002242Y011216D01*
X002233Y011197D01*
X002221Y011181D01*
X002206Y011166D01*
X002190Y011154D01*
X002171Y011145D01*
X002152Y011139D01*
X002132Y011136D01*
X002131Y011136D02*
X001541Y011136D01*
X002230Y011333D02*
X002147Y011403D01*
X002067Y011476D01*
X001989Y011551D01*
X001914Y011630D01*
X001842Y011711D01*
X001773Y011794D01*
X001707Y011880D01*
X001644Y011969D01*
X001584Y012060D01*
X001528Y012152D01*
X001476Y012247D01*
X001426Y012344D01*
X001381Y012442D01*
X001339Y012542D01*
X001300Y012643D01*
X001265Y012746D01*
X001234Y012850D01*
X001207Y012955D01*
X001184Y013061D01*
X001165Y013168D01*
X001149Y013275D01*
X001138Y013383D01*
X001130Y013491D01*
X001126Y013600D01*
X001127Y013708D01*
X001131Y013816D01*
X001139Y013925D01*
X001151Y014032D01*
X001167Y014140D01*
X001187Y014246D01*
X001211Y014352D01*
X001239Y014457D01*
X001270Y014561D01*
X001305Y014663D01*
X001344Y014764D01*
X001387Y014864D01*
X001433Y014962D01*
X001483Y015059D01*
X001536Y015153D01*
X001593Y015246D01*
X001653Y015336D01*
X001716Y015424D01*
X001782Y015510D01*
X001852Y015593D01*
X001924Y015674D01*
X002000Y015752D01*
X002078Y015827D01*
X002159Y015899D01*
X002242Y015968D01*
X002328Y016035D01*
X002416Y016098D01*
X002507Y016157D01*
X002600Y016214D01*
X002694Y016267D01*
X002791Y016316D01*
X002889Y016362D01*
X002989Y016405D01*
X003090Y016443D01*
X003193Y016478D01*
X003297Y016509D01*
X003402Y016537D01*
X003507Y016560D01*
X003614Y016580D01*
X003721Y016596D01*
X003829Y016608D01*
X003937Y016616D01*
X004046Y016620D01*
X004154Y016620D01*
X004263Y016616D01*
X004371Y016608D01*
X004479Y016596D01*
X004586Y016580D01*
X004693Y016560D01*
X004798Y016537D01*
X004903Y016509D01*
X005007Y016478D01*
X005110Y016443D01*
X005211Y016405D01*
X005311Y016362D01*
X005409Y016316D01*
X005506Y016267D01*
X005600Y016214D01*
X005693Y016157D01*
X005784Y016098D01*
X005872Y016035D01*
X005958Y015968D01*
X006041Y015899D01*
X006122Y015827D01*
X006200Y015752D01*
X006276Y015674D01*
X006348Y015593D01*
X006418Y015510D01*
X006484Y015424D01*
X006547Y015336D01*
X006607Y015246D01*
X006664Y015153D01*
X006717Y015059D01*
X006767Y014962D01*
X006813Y014864D01*
X006856Y014764D01*
X006895Y014663D01*
X006930Y014561D01*
X006961Y014457D01*
X006989Y014352D01*
X007013Y014246D01*
X007033Y014140D01*
X007049Y014032D01*
X007061Y013925D01*
X007069Y013816D01*
X007073Y013708D01*
X007074Y013600D01*
X007070Y013491D01*
X007062Y013383D01*
X007051Y013275D01*
X007035Y013168D01*
X007016Y013061D01*
X006993Y012955D01*
X006966Y012850D01*
X006935Y012746D01*
X006900Y012643D01*
X006861Y012542D01*
X006819Y012442D01*
X006774Y012344D01*
X006724Y012247D01*
X006672Y012152D01*
X006616Y012060D01*
X006556Y011969D01*
X006493Y011880D01*
X006427Y011794D01*
X006358Y011711D01*
X006286Y011630D01*
X006211Y011551D01*
X006133Y011476D01*
X006053Y011403D01*
X005970Y011333D01*
X005960Y011315D01*
X005953Y011296D01*
X005950Y011276D01*
X005949Y011255D01*
X005952Y011235D01*
X005958Y011216D01*
X005967Y011197D01*
X005979Y011181D01*
X005994Y011166D01*
X006010Y011154D01*
X006029Y011145D01*
X006048Y011139D01*
X006068Y011136D01*
X006069Y011136D02*
X006659Y011136D01*
X006685Y011134D01*
X006710Y011129D01*
X006734Y011121D01*
X006758Y011110D01*
X006779Y011095D01*
X006798Y011078D01*
X006815Y011059D01*
X006830Y011038D01*
X006841Y011014D01*
X006849Y010990D01*
X006854Y010965D01*
X006856Y010939D01*
X006659Y010939D02*
X005478Y010939D01*
X005452Y010941D01*
X005427Y010946D01*
X005403Y010954D01*
X005380Y010965D01*
X005358Y010980D01*
X005339Y010997D01*
X005322Y011016D01*
X005307Y011038D01*
X005296Y011061D01*
X005288Y011085D01*
X005283Y011110D01*
X005281Y011136D01*
X005281Y011235D01*
X005281Y011234D02*
X005287Y011266D01*
X005296Y011296D01*
X005308Y011326D01*
X005322Y011355D01*
X005339Y011382D01*
X005358Y011407D01*
X005380Y011431D01*
X005872Y010546D02*
X006659Y010546D01*
X005872Y010546D02*
X005084Y010349D01*
X005380Y011431D02*
X005466Y011483D01*
X005550Y011539D01*
X005632Y011597D01*
X005711Y011659D01*
X005788Y011724D01*
X005862Y011792D01*
X005934Y011863D01*
X006003Y011936D01*
X006069Y012013D01*
X006131Y012091D01*
X006191Y012172D01*
X006247Y012256D01*
X006300Y012341D01*
X006350Y012429D01*
X006396Y012519D01*
X006439Y012610D01*
X006478Y012703D01*
X006513Y012797D01*
X006545Y012893D01*
X006572Y012989D01*
X006596Y013087D01*
X006616Y013186D01*
X006632Y013285D01*
X006645Y013385D01*
X006653Y013485D01*
X006657Y013586D01*
X006658Y013687D01*
X006654Y013787D01*
X006647Y013888D01*
X006635Y013988D01*
X006620Y014087D01*
X006600Y014186D01*
X006577Y014284D01*
X006550Y014381D01*
X006519Y014477D01*
X006485Y014572D01*
X006446Y014665D01*
X006405Y014756D01*
X006359Y014846D01*
X006310Y014934D01*
X006258Y015020D01*
X006202Y015104D01*
X006143Y015185D01*
X006081Y015265D01*
X006016Y015341D01*
X005947Y015415D01*
X005876Y015487D01*
X005802Y015555D01*
X005726Y015621D01*
X005647Y015683D01*
X005566Y015742D01*
X005482Y015799D01*
X005396Y015851D01*
X005308Y015901D01*
X005219Y015946D01*
X005127Y015989D01*
X005034Y016027D01*
X004940Y016062D01*
X004844Y016093D01*
X004747Y016121D01*
X004649Y016144D01*
X004551Y016164D01*
X004451Y016180D01*
X004351Y016192D01*
X004251Y016200D01*
X004150Y016204D01*
X004050Y016204D01*
X003949Y016200D01*
X003849Y016192D01*
X003749Y016180D01*
X003649Y016164D01*
X003551Y016144D01*
X003453Y016121D01*
X003356Y016093D01*
X003260Y016062D01*
X003166Y016027D01*
X003073Y015989D01*
X002981Y015946D01*
X002892Y015901D01*
X002804Y015851D01*
X002718Y015799D01*
X002634Y015742D01*
X002553Y015683D01*
X002474Y015621D01*
X002398Y015555D01*
X002324Y015487D01*
X002253Y015415D01*
X002184Y015341D01*
X002119Y015265D01*
X002057Y015185D01*
X001998Y015104D01*
X001942Y015020D01*
X001890Y014934D01*
X001841Y014846D01*
X001795Y014756D01*
X001754Y014665D01*
X001715Y014572D01*
X001681Y014477D01*
X001650Y014381D01*
X001623Y014284D01*
X001600Y014186D01*
X001580Y014087D01*
X001565Y013988D01*
X001553Y013888D01*
X001546Y013787D01*
X001542Y013687D01*
X001543Y013586D01*
X001547Y013485D01*
X001555Y013385D01*
X001568Y013285D01*
X001584Y013186D01*
X001604Y013087D01*
X001628Y012989D01*
X001655Y012893D01*
X001687Y012797D01*
X001722Y012703D01*
X001761Y012610D01*
X001804Y012519D01*
X001850Y012429D01*
X001900Y012341D01*
X001953Y012256D01*
X002009Y012172D01*
X002069Y012091D01*
X002131Y012013D01*
X002197Y011936D01*
X002266Y011863D01*
X002338Y011792D01*
X002412Y011724D01*
X002489Y011659D01*
X002568Y011597D01*
X002650Y011539D01*
X002734Y011483D01*
X002820Y011431D01*
X001100Y017900D02*
X007100Y017900D01*
X007100Y019900D01*
X001100Y019900D01*
X001100Y018400D01*
X001100Y017900D01*
X007600Y017400D02*
X007600Y013400D01*
X009600Y013400D01*
X009600Y017400D01*
X007600Y017400D01*
D12*
X007100Y016900D03*
X008600Y015400D03*
X005600Y018900D03*
D13*
X004600Y018900D03*
X003600Y018900D03*
X002600Y018900D03*
X001100Y016900D03*
X001100Y015900D03*
X001100Y014900D03*
X001100Y013900D03*
X001100Y012900D03*
X001100Y011900D03*
X001100Y010900D03*
X001100Y009900D03*
X001100Y008900D03*
X001100Y007900D03*
X001100Y006900D03*
X001100Y005900D03*
X001100Y004900D03*
X001100Y003900D03*
X001100Y002900D03*
X007100Y002900D03*
X007100Y003900D03*
X007100Y004900D03*
X007100Y005900D03*
X007100Y006900D03*
X007100Y007900D03*
X007100Y008900D03*
X007100Y009900D03*
X007100Y010900D03*
X007100Y011900D03*
X007100Y012900D03*
X007100Y013900D03*
X007100Y014900D03*
X007100Y015900D03*
X008600Y016400D03*
X008600Y014400D03*
X008600Y010900D03*
X008600Y009900D03*
X008600Y008900D03*
X008600Y007900D03*
X008600Y006900D03*
X008600Y005900D03*
X008600Y004900D03*
X008600Y003900D03*
D14*
X008464Y004731D02*
X008464Y005191D01*
X008694Y005191D01*
X008771Y005115D01*
X008771Y004961D01*
X008694Y004884D01*
X008464Y004884D01*
X008617Y004884D02*
X008771Y004731D01*
X008310Y004731D02*
X008003Y004731D01*
X008003Y005191D01*
X008310Y005191D01*
X008157Y004961D02*
X008003Y004961D01*
X007850Y004808D02*
X007850Y005115D01*
X007773Y005191D01*
X007543Y005191D01*
X007543Y004731D01*
X007773Y004731D01*
X007850Y004808D01*
X007389Y004731D02*
X007082Y004731D01*
X007082Y005191D01*
X006929Y005115D02*
X006929Y004808D01*
X006852Y004731D01*
X006699Y004731D01*
X006622Y004808D01*
X006622Y005115D01*
X006699Y005191D01*
X006852Y005191D01*
X006929Y005115D01*
X006469Y005191D02*
X006469Y004731D01*
X006469Y004961D02*
X006162Y004961D01*
X006162Y004731D02*
X006162Y005191D01*
X006008Y004961D02*
X005701Y004961D01*
X005548Y004808D02*
X005548Y005115D01*
X005241Y004808D01*
X005318Y004731D01*
X005471Y004731D01*
X005548Y004808D01*
X005548Y005115D02*
X005471Y005191D01*
X005318Y005191D01*
X005241Y005115D01*
X005241Y004808D01*
X005087Y004731D02*
X004780Y004731D01*
X005087Y005038D01*
X005087Y005115D01*
X005011Y005191D01*
X004857Y005191D01*
X004780Y005115D01*
X004627Y005115D02*
X004550Y005191D01*
X004397Y005191D01*
X004320Y005115D01*
X004627Y005038D02*
X004320Y004731D01*
X004627Y004731D01*
X004627Y005038D02*
X004627Y005115D01*
X004167Y005420D02*
X003860Y005420D01*
X004167Y005727D01*
X004167Y005804D01*
X004090Y005880D01*
X003936Y005880D01*
X003860Y005804D01*
X003706Y005804D02*
X003629Y005880D01*
X003476Y005880D01*
X003399Y005804D01*
X003399Y005727D01*
X003476Y005650D01*
X003629Y005650D01*
X003706Y005573D01*
X003706Y005497D01*
X003629Y005420D01*
X003476Y005420D01*
X003399Y005497D01*
X003246Y005497D02*
X003246Y005880D01*
X003246Y005497D02*
X003169Y005420D01*
X003016Y005420D01*
X002939Y005497D01*
X002939Y005880D01*
X003016Y005191D02*
X002939Y005115D01*
X002939Y004808D01*
X003016Y004731D01*
X003169Y004731D01*
X003246Y004808D01*
X003399Y004884D02*
X003629Y004884D01*
X003706Y004961D01*
X003706Y005115D01*
X003629Y005191D01*
X003399Y005191D01*
X003399Y004731D01*
X003553Y004884D02*
X003706Y004731D01*
X003860Y004731D02*
X004167Y004731D01*
X004013Y004731D02*
X004013Y005191D01*
X003860Y005038D01*
X003553Y005343D02*
X003553Y005957D01*
X003169Y005191D02*
X003016Y005191D01*
X003169Y005191D02*
X003246Y005115D01*
X005662Y000627D02*
X005585Y000550D01*
X005585Y000473D01*
X005892Y000473D01*
X005892Y000397D02*
X005892Y000550D01*
X005815Y000627D01*
X005662Y000627D01*
X005662Y000320D02*
X005815Y000320D01*
X005892Y000397D01*
X006045Y000320D02*
X006045Y000627D01*
X006045Y000320D02*
X006276Y000320D01*
X006352Y000397D01*
X006352Y000627D01*
X006582Y000780D02*
X006582Y000320D01*
X006506Y000320D02*
X006659Y000320D01*
X006813Y000320D02*
X007043Y000320D01*
X007120Y000397D01*
X007043Y000473D01*
X006813Y000473D01*
X006813Y000550D02*
X006813Y000320D01*
X006813Y000550D02*
X006889Y000627D01*
X007043Y000627D01*
X007273Y000473D02*
X007273Y000780D01*
X007273Y000473D02*
X007427Y000320D01*
X007580Y000473D01*
X007580Y000780D01*
X006659Y000780D02*
X006582Y000780D01*
X006469Y012731D02*
X006469Y013191D01*
X006469Y012961D02*
X006162Y012961D01*
X006162Y012731D02*
X006162Y013191D01*
X006008Y012961D02*
X005701Y012961D01*
X005548Y012808D02*
X005471Y012731D01*
X005318Y012731D01*
X005241Y012808D01*
X005548Y013115D01*
X005548Y012808D01*
X005548Y013115D02*
X005471Y013191D01*
X005318Y013191D01*
X005241Y013115D01*
X005241Y012808D01*
X005087Y012731D02*
X004780Y012731D01*
X005087Y013038D01*
X005087Y013115D01*
X005011Y013191D01*
X004857Y013191D01*
X004780Y013115D01*
X004627Y013115D02*
X004550Y013191D01*
X004397Y013191D01*
X004320Y013115D01*
X004627Y013038D02*
X004320Y012731D01*
X004627Y012731D01*
X004627Y013038D02*
X004627Y013115D01*
X004167Y013497D02*
X004090Y013420D01*
X003936Y013420D01*
X003860Y013497D01*
X003706Y013497D02*
X003706Y013573D01*
X003629Y013650D01*
X003476Y013650D01*
X003399Y013727D01*
X003399Y013804D01*
X003476Y013880D01*
X003629Y013880D01*
X003706Y013804D01*
X003860Y013804D02*
X003936Y013880D01*
X004090Y013880D01*
X004167Y013804D01*
X004167Y013727D01*
X004090Y013650D01*
X004167Y013573D01*
X004167Y013497D01*
X004090Y013650D02*
X004013Y013650D01*
X003706Y013497D02*
X003629Y013420D01*
X003476Y013420D01*
X003399Y013497D01*
X003246Y013497D02*
X003246Y013880D01*
X003246Y013497D02*
X003169Y013420D01*
X003016Y013420D01*
X002939Y013497D01*
X002939Y013880D01*
X003016Y013191D02*
X002939Y013115D01*
X002939Y012808D01*
X003016Y012731D01*
X003169Y012731D01*
X003246Y012808D01*
X003399Y012884D02*
X003629Y012884D01*
X003706Y012961D01*
X003706Y013115D01*
X003629Y013191D01*
X003399Y013191D01*
X003399Y012731D01*
X003553Y012884D02*
X003706Y012731D01*
X003860Y012731D02*
X004167Y012731D01*
X004013Y012731D02*
X004013Y013191D01*
X003860Y013038D01*
X003553Y013343D02*
X003553Y013957D01*
X003169Y013191D02*
X003016Y013191D01*
X003169Y013191D02*
X003246Y013115D01*
X005769Y018820D02*
X005922Y018820D01*
X005999Y018897D01*
X005999Y019050D01*
X005922Y019127D01*
X005769Y019127D01*
X005692Y019050D01*
X005692Y018973D01*
X005999Y018973D01*
X006152Y019050D02*
X006152Y018820D01*
X006306Y018820D02*
X006306Y019050D01*
X006229Y019127D01*
X006152Y019050D01*
X006306Y019050D02*
X006382Y019127D01*
X006459Y019127D01*
X006459Y018820D01*
X006613Y018820D02*
X006843Y018820D01*
X006920Y018897D01*
X006843Y018973D01*
X006613Y018973D01*
X006613Y019050D02*
X006613Y018820D01*
X006613Y019050D02*
X006689Y019127D01*
X006843Y019127D01*
X007073Y019280D02*
X007073Y018820D01*
X007380Y019280D01*
X007380Y018820D01*
X007543Y013191D02*
X007773Y013191D01*
X007850Y013115D01*
X007850Y012808D01*
X007773Y012731D01*
X007543Y012731D01*
X007543Y013191D01*
X007389Y012731D02*
X007082Y012731D01*
X007082Y013191D01*
X006929Y013115D02*
X006852Y013191D01*
X006699Y013191D01*
X006622Y013115D01*
X006622Y012808D01*
X006699Y012731D01*
X006852Y012731D01*
X006929Y012808D01*
X006929Y013115D01*
X008003Y013191D02*
X008003Y012731D01*
X008310Y012731D01*
X008464Y012731D02*
X008464Y013191D01*
X008694Y013191D01*
X008771Y013115D01*
X008771Y012961D01*
X008694Y012884D01*
X008464Y012884D01*
X008617Y012884D02*
X008771Y012731D01*
X008310Y013191D02*
X008003Y013191D01*
X008003Y012961D02*
X008157Y012961D01*
D15*
X004100Y016652D03*
X004100Y008652D03*
D16*
X004100Y010416D03*
X004100Y002416D03*
D17*
X004100Y002349D03*
X004100Y010349D03*
D18*
X004100Y008968D03*
X004100Y016968D03*
D19*
X004100Y016652D02*
X004100Y016650D01*
X001850Y016650D01*
X001100Y015900D01*
X001130Y015840D01*
X004100Y015840D01*
X006530Y013410D01*
X007340Y013410D01*
X008240Y012510D01*
X008060Y012330D01*
X008060Y009720D01*
X008600Y009180D01*
X008600Y008900D01*
X008600Y007900D02*
X008600Y007650D01*
X007340Y006390D01*
X006890Y006390D01*
X006620Y006660D01*
X006620Y011430D01*
X005000Y013050D01*
X004190Y013050D01*
X003380Y012240D01*
X003380Y010440D01*
X001130Y008190D01*
X001130Y007920D01*
X001100Y007900D01*
X001130Y008820D02*
X001100Y008900D01*
X001130Y008820D02*
X004730Y008820D01*
X006170Y007380D01*
X007340Y007380D01*
X007790Y006930D01*
X008600Y006930D01*
X008600Y006900D01*
X007880Y007920D02*
X007880Y013320D01*
X008600Y014040D01*
X008600Y014400D01*
X008060Y014040D02*
X008600Y013500D01*
X008600Y010900D01*
X008060Y010440D02*
X008600Y009900D01*
X008060Y010440D02*
X008060Y011700D01*
X007340Y012420D01*
X006890Y012420D01*
X003650Y009180D01*
X003290Y009180D01*
X003290Y006390D01*
X001130Y004230D01*
X001130Y003960D01*
X001100Y003900D01*
X004100Y002430D02*
X004100Y002416D01*
X004100Y002430D02*
X004820Y003150D01*
X004820Y012690D01*
X004820Y014220D01*
X004820Y017460D01*
X004640Y017640D01*
X003560Y017640D01*
X002840Y016920D01*
X001130Y016920D01*
X001100Y016900D01*
X002600Y018900D02*
X002660Y018900D01*
X005630Y015930D01*
X007070Y015930D01*
X007100Y015900D01*
X006710Y016380D02*
X007700Y016380D01*
X008600Y015480D01*
X008600Y015400D01*
X008600Y015390D01*
X007160Y013950D01*
X007100Y013900D01*
X006890Y014400D02*
X008060Y014400D01*
X008060Y014040D01*
X008060Y014400D02*
X008060Y015840D01*
X008600Y016380D01*
X008600Y016400D01*
X008600Y017550D01*
X007250Y018900D01*
X005600Y018900D01*
X004640Y018900D02*
X004640Y018450D01*
X006710Y016380D01*
X007070Y016920D02*
X007100Y016900D01*
X007070Y016920D02*
X005630Y016920D01*
X003650Y018900D01*
X003600Y018900D01*
X004600Y018900D02*
X004640Y018900D01*
X006890Y014400D02*
X006350Y013860D01*
X001130Y013860D01*
X001100Y013900D01*
X004100Y010416D02*
X004100Y008652D01*
X007160Y007200D02*
X007160Y006930D01*
X007100Y006900D01*
X007160Y007200D02*
X007880Y007920D01*
D20*
X008240Y012510D03*
X008060Y014040D03*
X004820Y014220D03*
X004820Y012690D03*
X003290Y009180D03*
M02*
