G75*
%MOIN*%
%OFA0B0*%
%FSLAX24Y24*%
%IPPOS*%
%LPD*%
%AMOC8*
5,1,8,0,0,1.08239X$1,22.5*
%
%ADD10R,0.0700X0.0700*%
%ADD11C,0.0700*%
%ADD12C,0.0100*%
%ADD13C,0.0400*%
D10*
X007100Y016900D03*
X008600Y015400D03*
X005600Y018900D03*
D11*
X001100Y002900D03*
X001100Y003900D03*
X001100Y004900D03*
X001100Y005900D03*
X001100Y006900D03*
X001100Y007900D03*
X001100Y008900D03*
X001100Y009900D03*
X001100Y010900D03*
X001100Y011900D03*
X001100Y012900D03*
X001100Y013900D03*
X001100Y014900D03*
X001100Y015900D03*
X001100Y016900D03*
X002600Y018900D03*
X003600Y018900D03*
X004600Y018900D03*
X007100Y015900D03*
X007100Y014900D03*
X007100Y013900D03*
X007100Y012900D03*
X007100Y011900D03*
X007100Y010900D03*
X007100Y009900D03*
X007100Y008900D03*
X007100Y007900D03*
X007100Y006900D03*
X007100Y005900D03*
X007100Y004900D03*
X007100Y003900D03*
X007100Y002900D03*
X008600Y003900D03*
X008600Y004900D03*
X008600Y005900D03*
X008600Y006900D03*
X008600Y007900D03*
X008600Y008900D03*
X008600Y009900D03*
X008600Y010900D03*
X008600Y014400D03*
X008600Y016400D03*
D12*
X007700Y016380D02*
X008600Y015480D01*
X008600Y015400D01*
X008600Y015390D01*
X007160Y013950D01*
X007100Y013900D01*
X007340Y013410D02*
X006530Y013410D01*
X004100Y015840D01*
X001130Y015840D01*
X001100Y015900D01*
X002600Y018900D02*
X002660Y018900D01*
X005630Y015930D01*
X007070Y015930D01*
X007100Y015900D01*
X006710Y016380D02*
X007700Y016380D01*
X006710Y016380D02*
X004640Y018450D01*
X004640Y018900D01*
X004600Y018900D01*
X004820Y014220D02*
X004820Y012690D01*
X006890Y012420D02*
X003650Y009180D01*
X003290Y009180D01*
X004730Y008820D02*
X001130Y008820D01*
X001100Y008900D01*
X004730Y008820D02*
X006170Y007380D01*
X007340Y007380D01*
X007790Y006930D01*
X008600Y006930D01*
X008600Y006900D01*
X008600Y009900D02*
X008060Y010440D01*
X008060Y011700D01*
X007340Y012420D01*
X006890Y012420D01*
X007340Y013410D02*
X008240Y012510D01*
X008600Y013500D02*
X008060Y014040D01*
X008600Y013500D02*
X008600Y010900D01*
D13*
X008240Y012510D03*
X008060Y014040D03*
X004820Y014220D03*
X004820Y012690D03*
X003290Y009180D03*
M02*
