G75*
%MOIN*%
%OFA0B0*%
%FSLAX24Y24*%
%IPPOS*%
%LPD*%
%AMOC8*
5,1,8,0,0,1.08239X$1,22.5*
%
%ADD10C,0.0000*%
%ADD11C,0.0040*%
%ADD12C,0.0050*%
D10*
X000100Y001400D02*
X000100Y019896D01*
X009470Y019896D01*
X009470Y001400D01*
X000100Y001400D01*
X000750Y001900D02*
X000752Y001937D01*
X000758Y001974D01*
X000768Y002010D01*
X000781Y002045D01*
X000798Y002078D01*
X000819Y002109D01*
X000843Y002137D01*
X000870Y002163D01*
X000899Y002186D01*
X000930Y002206D01*
X000964Y002222D01*
X000999Y002235D01*
X001035Y002244D01*
X001072Y002249D01*
X001109Y002250D01*
X001146Y002247D01*
X001183Y002240D01*
X001219Y002229D01*
X001253Y002215D01*
X001286Y002197D01*
X001316Y002175D01*
X001344Y002151D01*
X001369Y002123D01*
X001392Y002093D01*
X001411Y002061D01*
X001426Y002027D01*
X001438Y001992D01*
X001446Y001956D01*
X001450Y001919D01*
X001450Y001881D01*
X001446Y001844D01*
X001438Y001808D01*
X001426Y001773D01*
X001411Y001739D01*
X001392Y001707D01*
X001369Y001677D01*
X001344Y001649D01*
X001316Y001625D01*
X001286Y001603D01*
X001253Y001585D01*
X001219Y001571D01*
X001183Y001560D01*
X001146Y001553D01*
X001109Y001550D01*
X001072Y001551D01*
X001035Y001556D01*
X000999Y001565D01*
X000964Y001578D01*
X000930Y001594D01*
X000899Y001614D01*
X000870Y001637D01*
X000843Y001663D01*
X000819Y001691D01*
X000798Y001722D01*
X000781Y001755D01*
X000768Y001790D01*
X000758Y001826D01*
X000752Y001863D01*
X000750Y001900D01*
X003854Y003924D02*
X003856Y003955D01*
X003862Y003985D01*
X003871Y004015D01*
X003884Y004043D01*
X003901Y004069D01*
X003921Y004092D01*
X003943Y004114D01*
X003968Y004132D01*
X003995Y004147D01*
X004024Y004158D01*
X004054Y004166D01*
X004085Y004170D01*
X004115Y004170D01*
X004146Y004166D01*
X004176Y004158D01*
X004205Y004147D01*
X004232Y004132D01*
X004257Y004114D01*
X004279Y004092D01*
X004299Y004069D01*
X004316Y004043D01*
X004329Y004015D01*
X004338Y003985D01*
X004344Y003955D01*
X004346Y003924D01*
X004344Y003893D01*
X004338Y003863D01*
X004329Y003833D01*
X004316Y003805D01*
X004299Y003779D01*
X004279Y003756D01*
X004257Y003734D01*
X004232Y003716D01*
X004205Y003701D01*
X004176Y003690D01*
X004146Y003682D01*
X004115Y003678D01*
X004085Y003678D01*
X004054Y003682D01*
X004024Y003690D01*
X003995Y003701D01*
X003968Y003716D01*
X003943Y003734D01*
X003921Y003756D01*
X003901Y003779D01*
X003884Y003805D01*
X003871Y003833D01*
X003862Y003863D01*
X003856Y003893D01*
X003854Y003924D01*
X003903Y006876D02*
X003905Y006903D01*
X003911Y006930D01*
X003920Y006956D01*
X003933Y006980D01*
X003949Y007003D01*
X003968Y007022D01*
X003990Y007039D01*
X004014Y007053D01*
X004039Y007063D01*
X004066Y007070D01*
X004093Y007073D01*
X004121Y007072D01*
X004148Y007067D01*
X004174Y007059D01*
X004198Y007047D01*
X004221Y007031D01*
X004242Y007013D01*
X004259Y006992D01*
X004274Y006968D01*
X004285Y006943D01*
X004293Y006917D01*
X004297Y006890D01*
X004297Y006862D01*
X004293Y006835D01*
X004285Y006809D01*
X004274Y006784D01*
X004259Y006760D01*
X004242Y006739D01*
X004221Y006721D01*
X004199Y006705D01*
X004174Y006693D01*
X004148Y006685D01*
X004121Y006680D01*
X004093Y006679D01*
X004066Y006682D01*
X004039Y006689D01*
X004014Y006699D01*
X003990Y006713D01*
X003968Y006730D01*
X003949Y006749D01*
X003933Y006772D01*
X003920Y006796D01*
X003911Y006822D01*
X003905Y006849D01*
X003903Y006876D01*
X003854Y011924D02*
X003856Y011955D01*
X003862Y011985D01*
X003871Y012015D01*
X003884Y012043D01*
X003901Y012069D01*
X003921Y012092D01*
X003943Y012114D01*
X003968Y012132D01*
X003995Y012147D01*
X004024Y012158D01*
X004054Y012166D01*
X004085Y012170D01*
X004115Y012170D01*
X004146Y012166D01*
X004176Y012158D01*
X004205Y012147D01*
X004232Y012132D01*
X004257Y012114D01*
X004279Y012092D01*
X004299Y012069D01*
X004316Y012043D01*
X004329Y012015D01*
X004338Y011985D01*
X004344Y011955D01*
X004346Y011924D01*
X004344Y011893D01*
X004338Y011863D01*
X004329Y011833D01*
X004316Y011805D01*
X004299Y011779D01*
X004279Y011756D01*
X004257Y011734D01*
X004232Y011716D01*
X004205Y011701D01*
X004176Y011690D01*
X004146Y011682D01*
X004115Y011678D01*
X004085Y011678D01*
X004054Y011682D01*
X004024Y011690D01*
X003995Y011701D01*
X003968Y011716D01*
X003943Y011734D01*
X003921Y011756D01*
X003901Y011779D01*
X003884Y011805D01*
X003871Y011833D01*
X003862Y011863D01*
X003856Y011893D01*
X003854Y011924D01*
X003903Y014876D02*
X003905Y014903D01*
X003911Y014930D01*
X003920Y014956D01*
X003933Y014980D01*
X003949Y015003D01*
X003968Y015022D01*
X003990Y015039D01*
X004014Y015053D01*
X004039Y015063D01*
X004066Y015070D01*
X004093Y015073D01*
X004121Y015072D01*
X004148Y015067D01*
X004174Y015059D01*
X004198Y015047D01*
X004221Y015031D01*
X004242Y015013D01*
X004259Y014992D01*
X004274Y014968D01*
X004285Y014943D01*
X004293Y014917D01*
X004297Y014890D01*
X004297Y014862D01*
X004293Y014835D01*
X004285Y014809D01*
X004274Y014784D01*
X004259Y014760D01*
X004242Y014739D01*
X004221Y014721D01*
X004199Y014705D01*
X004174Y014693D01*
X004148Y014685D01*
X004121Y014680D01*
X004093Y014679D01*
X004066Y014682D01*
X004039Y014689D01*
X004014Y014699D01*
X003990Y014713D01*
X003968Y014730D01*
X003949Y014749D01*
X003933Y014772D01*
X003920Y014796D01*
X003911Y014822D01*
X003905Y014849D01*
X003903Y014876D01*
X000750Y017900D02*
X000752Y017937D01*
X000758Y017974D01*
X000768Y018010D01*
X000781Y018045D01*
X000798Y018078D01*
X000819Y018109D01*
X000843Y018137D01*
X000870Y018163D01*
X000899Y018186D01*
X000930Y018206D01*
X000964Y018222D01*
X000999Y018235D01*
X001035Y018244D01*
X001072Y018249D01*
X001109Y018250D01*
X001146Y018247D01*
X001183Y018240D01*
X001219Y018229D01*
X001253Y018215D01*
X001286Y018197D01*
X001316Y018175D01*
X001344Y018151D01*
X001369Y018123D01*
X001392Y018093D01*
X001411Y018061D01*
X001426Y018027D01*
X001438Y017992D01*
X001446Y017956D01*
X001450Y017919D01*
X001450Y017881D01*
X001446Y017844D01*
X001438Y017808D01*
X001426Y017773D01*
X001411Y017739D01*
X001392Y017707D01*
X001369Y017677D01*
X001344Y017649D01*
X001316Y017625D01*
X001286Y017603D01*
X001253Y017585D01*
X001219Y017571D01*
X001183Y017560D01*
X001146Y017553D01*
X001109Y017550D01*
X001072Y017551D01*
X001035Y017556D01*
X000999Y017565D01*
X000964Y017578D01*
X000930Y017594D01*
X000899Y017614D01*
X000870Y017637D01*
X000843Y017663D01*
X000819Y017691D01*
X000798Y017722D01*
X000781Y017755D01*
X000768Y017790D01*
X000758Y017826D01*
X000752Y017863D01*
X000750Y017900D01*
X006750Y017900D02*
X006752Y017937D01*
X006758Y017974D01*
X006768Y018010D01*
X006781Y018045D01*
X006798Y018078D01*
X006819Y018109D01*
X006843Y018137D01*
X006870Y018163D01*
X006899Y018186D01*
X006930Y018206D01*
X006964Y018222D01*
X006999Y018235D01*
X007035Y018244D01*
X007072Y018249D01*
X007109Y018250D01*
X007146Y018247D01*
X007183Y018240D01*
X007219Y018229D01*
X007253Y018215D01*
X007286Y018197D01*
X007316Y018175D01*
X007344Y018151D01*
X007369Y018123D01*
X007392Y018093D01*
X007411Y018061D01*
X007426Y018027D01*
X007438Y017992D01*
X007446Y017956D01*
X007450Y017919D01*
X007450Y017881D01*
X007446Y017844D01*
X007438Y017808D01*
X007426Y017773D01*
X007411Y017739D01*
X007392Y017707D01*
X007369Y017677D01*
X007344Y017649D01*
X007316Y017625D01*
X007286Y017603D01*
X007253Y017585D01*
X007219Y017571D01*
X007183Y017560D01*
X007146Y017553D01*
X007109Y017550D01*
X007072Y017551D01*
X007035Y017556D01*
X006999Y017565D01*
X006964Y017578D01*
X006930Y017594D01*
X006899Y017614D01*
X006870Y017637D01*
X006843Y017663D01*
X006819Y017691D01*
X006798Y017722D01*
X006781Y017755D01*
X006768Y017790D01*
X006758Y017826D01*
X006752Y017863D01*
X006750Y017900D01*
X006750Y001900D02*
X006752Y001937D01*
X006758Y001974D01*
X006768Y002010D01*
X006781Y002045D01*
X006798Y002078D01*
X006819Y002109D01*
X006843Y002137D01*
X006870Y002163D01*
X006899Y002186D01*
X006930Y002206D01*
X006964Y002222D01*
X006999Y002235D01*
X007035Y002244D01*
X007072Y002249D01*
X007109Y002250D01*
X007146Y002247D01*
X007183Y002240D01*
X007219Y002229D01*
X007253Y002215D01*
X007286Y002197D01*
X007316Y002175D01*
X007344Y002151D01*
X007369Y002123D01*
X007392Y002093D01*
X007411Y002061D01*
X007426Y002027D01*
X007438Y001992D01*
X007446Y001956D01*
X007450Y001919D01*
X007450Y001881D01*
X007446Y001844D01*
X007438Y001808D01*
X007426Y001773D01*
X007411Y001739D01*
X007392Y001707D01*
X007369Y001677D01*
X007344Y001649D01*
X007316Y001625D01*
X007286Y001603D01*
X007253Y001585D01*
X007219Y001571D01*
X007183Y001560D01*
X007146Y001553D01*
X007109Y001550D01*
X007072Y001551D01*
X007035Y001556D01*
X006999Y001565D01*
X006964Y001578D01*
X006930Y001594D01*
X006899Y001614D01*
X006870Y001637D01*
X006843Y001663D01*
X006819Y001691D01*
X006798Y001722D01*
X006781Y001755D01*
X006768Y001790D01*
X006758Y001826D01*
X006752Y001863D01*
X006750Y001900D01*
D11*
X004167Y005420D02*
X003860Y005420D01*
X004167Y005727D01*
X004167Y005804D01*
X004090Y005880D01*
X003936Y005880D01*
X003860Y005804D01*
X003706Y005804D02*
X003629Y005880D01*
X003476Y005880D01*
X003399Y005804D01*
X003399Y005727D01*
X003476Y005650D01*
X003629Y005650D01*
X003706Y005573D01*
X003706Y005497D01*
X003629Y005420D01*
X003476Y005420D01*
X003399Y005497D01*
X003246Y005497D02*
X003246Y005880D01*
X003246Y005497D02*
X003169Y005420D01*
X003016Y005420D01*
X002939Y005497D01*
X002939Y005880D01*
X003553Y005957D02*
X003553Y005343D01*
X003553Y013343D02*
X003553Y013957D01*
X003476Y013880D02*
X003629Y013880D01*
X003706Y013804D01*
X003860Y013804D02*
X003936Y013880D01*
X004090Y013880D01*
X004167Y013804D01*
X004167Y013727D01*
X004090Y013650D01*
X004167Y013573D01*
X004167Y013497D01*
X004090Y013420D01*
X003936Y013420D01*
X003860Y013497D01*
X003706Y013497D02*
X003706Y013573D01*
X003629Y013650D01*
X003476Y013650D01*
X003399Y013727D01*
X003399Y013804D01*
X003476Y013880D01*
X003246Y013880D02*
X003246Y013497D01*
X003169Y013420D01*
X003016Y013420D01*
X002939Y013497D01*
X002939Y013880D01*
X003399Y013497D02*
X003476Y013420D01*
X003629Y013420D01*
X003706Y013497D01*
X004013Y013650D02*
X004090Y013650D01*
D12*
X001100Y017900D02*
X007100Y017900D01*
X007100Y019900D01*
X001100Y019900D01*
X001100Y018400D01*
X001100Y017900D01*
X007600Y017400D02*
X007600Y013400D01*
X009600Y013400D01*
X009600Y017400D01*
X007600Y017400D01*
X007600Y011900D02*
X009600Y011900D01*
X009600Y002900D01*
X007600Y002900D01*
X007600Y011900D01*
M02*
