%
M48
M72
T01C0.0240
T02C0.0315
T03C0.0354
T04C0.0394
T05C0.0492
T06C0.0700
%
T01
X3290Y9180
X4820Y12690
X4820Y14220
X8060Y14040
X8240Y12510
T02
X8600Y14400
X8600Y15400
X8600Y16400
X7100Y15900
X7100Y14900
X7100Y13900
X7100Y12900
X7100Y11900
X7100Y10900
X7100Y9900
X7100Y8900
X7100Y7900
X7100Y6900
X7100Y5900
X7100Y4900
X7100Y3900
X7100Y2900
X1100Y2900
X1100Y3900
X1100Y4900
X1100Y5900
X1100Y6900
X1100Y7900
X1100Y8900
X1100Y9900
X1100Y10900
X1100Y11900
X1100Y12900
X1100Y13900
X1100Y14900
X1100Y15900
X1100Y16900
X2600Y18900
X3600Y18900
X4600Y18900
X5600Y18900
X7100Y16900
T03
X8600Y10900
X8600Y9900
X8600Y8900
X8600Y7900
X8600Y6900
X8600Y5900
X8600Y4900
X8600Y3900
T04
X4100Y6876
X4100Y14876
T05
X4100Y11924
X4100Y3924
T06
X1100Y1900
X7100Y1900
X7100Y17900
X1100Y17900
M30
